<?xml version="1.0" encoding="UTF-8"?>
<svg width="280px" height="30px" viewBox="0 0 280 30" version="1.1" 
    xmlns="http://www.w3.org/2000/svg" 
    xmlns:xlink="http://www.w3.org/1999/xlink">
    <!-- Generator: Sketch 51.3 (57544) - http://www.bohemiancoding.com/sketch -->
    <title>Artboard 2</title>
    <desc>Created with Sketch.</desc>
    <defs></defs>
    <g id="Artboard-2" stroke="none" stroke-width="1" fill="none" fill-rule="evenodd">
        <g id="kontrast" fill="#07323F">
            <path d="M271.054896,27.487997 C274.971028,27.487997 273.326977,21.599301 274.484642,10.7730753 C275.032956,5.64536776 279.83396,5.63015728 279.83396,3.03935913 C279.83396,0.781677187 275.694565,0.424787901 271.593069,0.316217396 C267.491573,0.20764689 262.424492,0.838701357 262.424492,3.03935913 C262.424492,5.36095931 267.254157,5.33219996 267.784638,11.1002514 C268.750222,21.599301 267.138764,27.487997 271.054896,27.487997 Z" id="T"></path>
            <path d="M227.43355,22.7428094 C225.544192,25.4836249 230.789404,29.704805 236.958208,29.704805 C243.611695,29.704805 248.529638,25.473475 248.190989,21.2271047 C247.661504,14.5878033 242.423681,12.3548784 239.498079,11.9511581 C236.770971,11.5748292 234.815349,10.0952953 234.452581,8.0884328 C234.204981,6.71868883 235.210703,5.43122859 237.332423,5.43122859 C240.536126,5.43122859 242.795305,9.50089787 244.98248,6.6791412 C246.972738,4.11143443 242.014359,0.422475982 237.332423,0.422475982 C230.766433,0.422475982 226.781413,2.77948252 226.513925,8.0884328 C226.239423,13.5365918 230.279989,15.9878583 235.796806,17.1919065 C238.734368,17.8330311 240.861473,19.5655753 240.861473,21.8849718 C240.861473,23.4263504 239.076845,25.3772714 236.663501,25.3772714 C232.54646,25.3772714 229.47597,19.7799515 227.43355,22.7428094 Z" id="S"></path>
            <path d="M190.094706,27.0232893 C192.144587,29.1888472 196.015963,22.9301885 200.853394,22.9301885 C205.690826,22.9301885 209.641389,29.3495553 211.68807,27.0232893 C213.755511,24.6734287 211.593019,20.9406451 208.986587,13.5779353 C206.459057,6.43810916 205.296688,1.28049447 201.082961,1.28049447 C196.869233,1.28049447 195.889031,6.00766824 192.824362,14.448069 C190.731956,20.2107604 188.130071,24.9477874 190.094706,27.0232893 Z" id="A"></path>
            <path d="M151.713795,13.2815159 C152.020303,7.51839544 150.132365,0.440750178 158.565156,0.665787309 C160.73254,0.723626024 163.373059,1.12009386 165.537873,0.948396148 C172.395128,0.404527249 174.697123,4.28441677 175.109841,8.4895899 C175.406988,11.5172023 174.073469,11.5172023 174.073469,15.779848 C174.073469,19.2882687 174.840606,19.4975104 175.109841,22.6438305 C175.317783,25.0738686 174.472143,27.2549918 172.798547,27.2549918 C169.944102,27.2549918 169.082655,17.9395745 162.982828,17.9395745 C157.554095,17.9395745 158.275985,27.583448 154.606033,27.583448 C151.344104,27.583448 151.39207,19.3307591 151.713795,13.2815159 Z M163.568306,13.6475673 C165.979236,13.6475673 167.933681,11.7786261 167.933681,9.4731703 C167.933681,7.16771448 165.979236,5.29877327 163.568306,5.29877327 C161.157376,5.29877327 159.202931,7.16771448 159.202931,9.4731703 C159.202931,11.7786261 161.157376,13.6475673 163.568306,13.6475673 Z" id="R"></path>
            <path d="M127.686789,27.487997 C131.602921,27.487997 129.95887,21.599301 131.116535,10.7730753 C131.664849,5.64536776 136.465852,5.63015728 136.465852,3.03935913 C136.465852,0.781677187 132.326458,0.424787901 128.224962,0.316217396 C124.123465,0.20764689 119.056385,0.838701357 119.056385,3.03935913 C119.056385,5.36095931 123.88605,5.33219996 124.41653,11.1002514 C125.382114,21.599301 123.770657,27.487997 127.686789,27.487997 Z" id="T"></path>
            <path d="M82.0827827,27.2474164 C85.2533787,27.2474164 84.2271027,17.30967 88.0784423,17.30967 C91.5163214,17.30967 95.314204,28.574563 99.8601983,28.574563 C103.977643,28.574563 103.883726,22.4286833 103.663971,15.5055659 C103.368474,6.19628906 103.368474,3.15630798 100.82006,3.15630798 C97.4870192,3.15630798 99.0199264,12.6229853 95.1683624,12.6229853 C90.9874209,12.6229853 88.0784423,0.441772234 82.6300252,1.38481636 C78.4862009,2.10205387 79.1930035,6.98351802 79.1931001,12.6229853 C79.1931803,17.30967 78.8035909,27.2474164 82.0827827,27.2474164 Z" id="N"></path>
            <path d="M49.9950323,29.8144712 C42.1277868,29.8144712 35.7501242,23.1693469 35.7501242,14.9721707 C35.7501242,6.77499444 42.1277868,0.12987013 49.9950323,0.12987013 C57.8622778,0.12987013 64.2399404,6.77499444 64.2399404,14.9721707 C64.2399404,23.1693469 57.8622778,29.8144712 49.9950323,29.8144712 Z M49.9950323,24.417271 C54.3600846,24.417271 57.8986587,20.1885556 57.8986587,14.9721707 C57.8986587,9.7557858 54.3600846,5.52707033 49.9950323,5.52707033 C45.6299799,5.52707033 42.0914059,9.7557858 42.0914059,14.9721707 C42.0914059,20.1885556 45.6299799,24.417271 49.9950323,24.417271 Z" id="O"></path>
            <path d="M2.53188618,26.9713083 C6.45124276,28.9981678 6.55668231,19.9845155 10.4919484,19.9845155 C14.6390869,19.9845155 19.5051334,31.1701075 22.892014,27.4801486 C25.3486308,24.803699 17.187048,19.2199955 17.187048,13.4382348 C17.187048,8.24324162 22.89903,3.70331701 19.878876,2.489352 C16.6529873,1.19269092 15.3184933,6.64760996 10.4919484,6.64760996 C6.97722653,6.64760996 6.25958198,2.06773248 3.67643563,2.06773248 C-1.50819557,2.06773248 0.203489188,25.767199 2.53188618,26.9713083 Z" id="K"></path>
        </g>
    </g>
</svg>